<svg width="799" height="733" viewBox="0 0 799 733" fill="none" xmlns="http://www.w3.org/2000/svg">
<rect y="159" width="799" height="307" rx="150" fill="white"/>
<ellipse cx="310.49" cy="181.5" rx="165.978" ry="158.5" fill="white"/>
<ellipse cx="516.783" cy="158.5" rx="165.978" ry="158.5" fill="white"/>
<rect width="24.4427" height="59.1173" rx="12.2214" transform="matrix(0.723343 0.690488 -0.68907 0.724695 403.289 521.602)" fill="white"/>
<rect width="24.42" height="59.1723" rx="12.21" transform="matrix(0.999445 -0.0333186 0.0331883 0.999449 360.586 517.814)" fill="white"/>
<rect width="24.42" height="65.0567" rx="12.21" transform="matrix(0.999445 -0.0333186 0.0331883 0.999449 362.555 563.837)" fill="white"/>
<rect width="24.4474" height="59.106" rx="12.2237" transform="matrix(0.652473 -0.757812 0.756544 0.653943 326.465 542.759)" fill="white"/>
<rect width="24.4274" height="59.1543" rx="12.2137" transform="matrix(0.918212 -0.396088 0.394779 0.918776 300.023 556.919)" fill="white"/>
<rect width="24.4616" height="59.0716" rx="12.2308" transform="matrix(0.360825 -0.932633 0.932155 0.362058 279.797 594.792)" fill="white"/>
<rect width="24.4616" height="64.946" rx="12.2308" transform="matrix(0.360825 -0.932633 0.932155 0.362058 322.82 611.03)" fill="white"/>
<rect width="24.4586" height="59.079" rx="12.2293" transform="matrix(-0.439583 -0.898202 0.897519 -0.440976 289.312 636.026)" fill="white"/>
<rect width="24.4591" height="59.0777" rx="12.2296" transform="matrix(-0.42708 0.904214 -0.903565 -0.428452 478.922 614.352)" fill="white"/>
<rect width="24.4622" height="59.0703" rx="12.2311" transform="matrix(0.344578 0.938758 -0.938319 0.345771 469.113 572.536)" fill="white"/>
<rect width="24.4622" height="64.9445" rx="12.2311" transform="matrix(0.344578 0.938758 -0.938319 0.345771 426.117 588.85)" fill="white"/>
<rect width="24.4269" height="59.1555" rx="12.2135" transform="matrix(0.923633 0.383279 -0.381997 0.924164 434.766 547.901)" fill="white"/>
<rect width="24.467" height="59.0586" rx="12.2335" transform="matrix(0.135201 -0.990818 0.990747 0.135723 272 661.154)" fill="white"/>
<rect width="24.4499" height="59.0999" rx="12.225" transform="matrix(-0.611231 -0.791452 0.79029 -0.612733 293.93 698.064)" fill="white"/>
<rect width="24.4499" height="64.9771" rx="12.225" transform="matrix(-0.611231 -0.791452 0.79029 -0.612733 330.02 669.525)" fill="white"/>
<rect width="24.4203" height="59.1716" rx="12.2101" transform="matrix(-0.996246 -0.0865697 0.0862332 -0.996275 334.09 711.182)" fill="white"/>
<rect width="24.4436" height="59.1151" rx="12.2218" transform="matrix(-0.710416 -0.703782 0.702387 -0.711796 351.047 728.059)" fill="white"/>
<rect width="24.4199" height="59.1724" rx="12.21" transform="matrix(-0.999891 0.0147462 -0.0146885 -0.999892 393.672 732.64)" fill="white"/>
<rect width="24.4199" height="65.0568" rx="12.21" transform="matrix(-0.999891 0.0147462 -0.0146885 -0.999892 392.559 686.588)" fill="white"/>
<rect width="24.4465" height="59.1081" rx="12.2233" transform="matrix(-0.666408 0.745587 -0.744286 -0.667861 428.254 708.332)" fill="white"/>
<rect width="24.4209" height="59.1701" rx="12.2104" transform="matrix(-0.989669 0.143369 -0.142819 -0.989749 450.453 707.68)" fill="white"/>
<rect width="24.4511" height="59.097" rx="12.2256" transform="matrix(-0.590623 0.806948 -0.805841 -0.592132 479.809 676.378)" fill="white"/>
<rect width="24.4511" height="64.9739" rx="12.2256" transform="matrix(-0.590623 0.806948 -0.805841 -0.592132 442.477 649.492)" fill="white"/>
<rect width="24.4661" height="59.0607" rx="12.2331" transform="matrix(0.1914 0.981512 -0.981371 0.192124 481.316 634.082)" fill="white"/>
<rect width="24.4591" height="59.0777" rx="12.2296" transform="matrix(-0.42708 0.904214 -0.903565 -0.428452 478.922 614.352)" fill="white"/>
<rect width="24.4622" height="59.0703" rx="12.2311" transform="matrix(0.344578 0.938758 -0.938319 0.345771 469.113 572.536)" fill="white"/>
<rect width="24.4622" height="64.9445" rx="12.2311" transform="matrix(0.344578 0.938758 -0.938319 0.345771 426.117 588.85)" fill="white"/>
<rect width="24.4269" height="59.1555" rx="12.2135" transform="matrix(0.923633 0.383279 -0.381997 0.924164 434.766 547.901)" fill="white"/>
<rect width="13.5859" height="32.8575" rx="6.79297" transform="matrix(0.723666 0.690151 -0.689408 0.724374 582.008 498.557)" fill="white"/>
<rect width="13.5793" height="32.8735" rx="6.78966" transform="matrix(0.999446 -0.0332875 0.0332193 0.999448 558.262 496.452)" fill="white"/>
<rect width="13.5793" height="36.1426" rx="6.78966" transform="matrix(0.999446 -0.0332875 0.0332192 0.999448 559.355 522.02)" fill="white"/>
<rect width="13.5873" height="32.8542" rx="6.79365" transform="matrix(0.652823 -0.75751 0.756846 0.653593 539.285 510.31)" fill="white"/>
<rect width="13.5815" height="32.8683" rx="6.79074" transform="matrix(0.918347 -0.395776 0.395091 0.918642 524.582 518.177)" fill="white"/>
<rect width="13.5914" height="32.8442" rx="6.79572" transform="matrix(0.361118 -0.93252 0.93227 0.361764 513.336 539.218)" fill="white"/>
<rect width="13.5914" height="36.1104" rx="6.79572" transform="matrix(0.361118 -0.93252 0.93227 0.361764 537.258 548.239)" fill="white"/>
<rect width="13.5906" height="32.8464" rx="6.79528" transform="matrix(-0.439915 -0.89804 0.897682 -0.440644 518.629 562.125)" fill="white"/>
<rect width="13.5907" height="32.846" rx="6.79535" transform="matrix(-0.427407 0.90406 -0.903719 -0.428125 624.062 550.084)" fill="white"/>
<rect width="13.5916" height="32.8438" rx="6.7958" transform="matrix(0.344862 0.938653 -0.938424 0.345487 618.609 526.853)" fill="white"/>
<rect width="13.5916" height="36.1099" rx="6.7958" transform="matrix(0.344861 0.938654 -0.938424 0.345487 594.699 535.917)" fill="white"/>
<rect width="13.5813" height="32.8686" rx="6.79067" transform="matrix(0.92376 0.382973 -0.382302 0.924038 599.512 513.167)" fill="white"/>
<rect width="13.593" height="32.8404" rx="6.7965" transform="matrix(0.135325 -0.990801 0.990764 0.135598 509 576.086)" fill="white"/>
<rect width="13.588" height="32.8525" rx="6.79402" transform="matrix(-0.611589 -0.791176 0.790567 -0.612375 521.195 596.591)" fill="white"/>
<rect width="13.588" height="36.1195" rx="6.79402" transform="matrix(-0.611589 -0.791176 0.790567 -0.612376 541.266 580.736)" fill="white"/>
<rect width="13.5794" height="32.8733" rx="6.7897" transform="matrix(-0.996253 -0.0864894 0.0863132 -0.996268 543.527 603.879)" fill="white"/>
<rect width="13.5862" height="32.8569" rx="6.7931" transform="matrix(-0.710745 -0.70345 0.702719 -0.711468 552.957 613.255)" fill="white"/>
<rect width="13.5793" height="32.8736" rx="6.78965" transform="matrix(-0.999891 0.0147325 -0.0147022 -0.999892 576.66 615.8)" fill="white"/>
<rect width="13.5793" height="36.1427" rx="6.78966" transform="matrix(-0.999891 0.0147324 -0.0147022 -0.999892 576.039 590.215)" fill="white"/>
<rect width="13.587" height="32.8548" rx="6.79352" transform="matrix(-0.666754 0.745278 -0.744596 -0.667515 595.887 602.296)" fill="white"/>
<rect width="13.5796" height="32.8729" rx="6.78979" transform="matrix(-0.989688 0.143238 -0.142949 -0.98973 608.23 601.934)" fill="white"/>
<rect width="13.5884" height="32.8516" rx="6.79419" transform="matrix(-0.590982 0.806684 -0.806105 -0.591773 624.559 584.543)" fill="white"/>
<rect width="13.5884" height="36.1185" rx="6.79419" transform="matrix(-0.590982 0.806685 -0.806105 -0.591773 603.797 569.606)" fill="white"/>
<rect width="13.5927" height="32.8411" rx="6.79637" transform="matrix(0.191572 0.981479 -0.981404 0.191952 625.398 561.045)" fill="white"/>
<rect width="13.5907" height="32.846" rx="6.79535" transform="matrix(-0.427407 0.90406 -0.903719 -0.428125 624.062 550.084)" fill="white"/>
<rect width="13.5916" height="32.8438" rx="6.7958" transform="matrix(0.344862 0.938653 -0.938424 0.345487 618.609 526.853)" fill="white"/>
<rect width="13.5916" height="36.1099" rx="6.7958" transform="matrix(0.344861 0.938654 -0.938424 0.345487 594.699 535.917)" fill="white"/>
<rect width="13.5813" height="32.8686" rx="6.79067" transform="matrix(0.92376 0.382973 -0.382302 0.924038 599.512 513.167)" fill="white"/>
<rect width="10.8568" height="26.2598" rx="5.4284" transform="matrix(0.72294 0.690911 -0.688647 0.725097 226.281 513.045)" fill="white"/>
<rect width="10.8407" height="26.2988" rx="5.42033" transform="matrix(0.999443 -0.0333575 0.0331495 0.99945 207.324 511.362)" fill="white"/>
<rect width="10.8407" height="28.914" rx="5.42033" transform="matrix(0.999443 -0.0333575 0.0331495 0.99945 208.199 531.816)" fill="white"/>
<rect width="10.8601" height="26.2518" rx="5.43006" transform="matrix(0.652035 -0.758189 0.756166 0.65438 192.18 522.448)" fill="white"/>
<rect width="10.8459" height="26.286" rx="5.42297" transform="matrix(0.918044 -0.396479 0.39439 0.918943 180.441 528.742)" fill="white"/>
<rect width="10.8702" height="26.2274" rx="5.43509" transform="matrix(0.360458 -0.932775 0.932013 0.362426 171.461 545.574)" fill="white"/>
<rect width="10.8702" height="28.8356" rx="5.43509" transform="matrix(0.360458 -0.932775 0.932013 0.362426 190.559 552.791)" fill="white"/>
<rect width="10.868" height="26.2326" rx="5.43401" transform="matrix(-0.439169 -0.898404 0.897315 -0.441391 175.688 563.9)" fill="white"/>
<rect width="10.8684" height="26.2317" rx="5.4342" transform="matrix(-0.426672 0.904406 -0.903371 -0.428861 259.859 554.268)" fill="white"/>
<rect width="10.8706" height="26.2265" rx="5.43528" transform="matrix(0.344223 0.938888 -0.938188 0.346127 255.504 535.683)" fill="white"/>
<rect width="10.8706" height="28.8345" rx="5.43528" transform="matrix(0.344223 0.938888 -0.938188 0.346127 236.418 542.933)" fill="white"/>
<rect width="10.8456" height="26.2868" rx="5.4228" transform="matrix(0.923474 0.383661 -0.381616 0.924321 240.254 524.734)" fill="white"/>
<rect width="10.874" height="26.2182" rx="5.437" transform="matrix(0.135046 -0.990839 0.990725 0.135879 168 575.069)" fill="white"/>
<rect width="10.8619" height="26.2475" rx="5.43094" transform="matrix(-0.610783 -0.791798 0.789943 -0.61318 177.734 591.473)" fill="white"/>
<rect width="10.8619" height="28.8576" rx="5.43095" transform="matrix(-0.610783 -0.791798 0.789943 -0.61318 193.758 578.789)" fill="white"/>
<rect width="10.8409" height="26.2982" rx="5.42043" transform="matrix(-0.996237 -0.0866702 0.0861332 -0.996284 195.562 597.303)" fill="white"/>
<rect width="10.8574" height="26.2583" rx="5.42872" transform="matrix(-0.710005 -0.704197 0.701971 -0.712206 203.09 604.804)" fill="white"/>
<rect width="10.8406" height="26.2988" rx="5.42031" transform="matrix(-0.999891 0.0147635 -0.0146713 -0.999892 222.012 606.84)" fill="white"/>
<rect width="10.8406" height="28.9141" rx="5.42032" transform="matrix(-0.999891 0.0147635 -0.0146714 -0.999892 221.52 586.372)" fill="white"/>
<rect width="10.8595" height="26.2533" rx="5.42975" transform="matrix(-0.665975 0.745974 -0.743898 -0.668293 237.363 596.037)" fill="white"/>
<rect width="10.8413" height="26.2972" rx="5.42066" transform="matrix(-0.989646 0.143533 -0.142655 -0.989772 247.219 595.747)" fill="white"/>
<rect width="10.8627" height="26.2454" rx="5.43137" transform="matrix(-0.590173 0.807276 -0.805511 -0.592581 260.25 581.835)" fill="white"/>
<rect width="10.8627" height="28.8554" rx="5.43137" transform="matrix(-0.590173 0.807277 -0.80551 -0.592582 243.68 569.885)" fill="white"/>
<rect width="10.8734" height="26.2197" rx="5.43668" transform="matrix(0.191184 0.981554 -0.981328 0.192341 260.922 563.036)" fill="white"/>
<rect width="10.8684" height="26.2317" rx="5.4342" transform="matrix(-0.426672 0.904406 -0.903371 -0.428861 259.859 554.268)" fill="white"/>
<rect width="10.8706" height="26.2265" rx="5.43528" transform="matrix(0.344223 0.938888 -0.938188 0.346127 255.504 535.683)" fill="white"/>
<rect width="10.8706" height="28.8345" rx="5.43528" transform="matrix(0.344223 0.938888 -0.938188 0.346127 236.418 542.933)" fill="white"/>
<rect width="10.8456" height="26.2868" rx="5.4228" transform="matrix(0.923474 0.383661 -0.381616 0.924321 240.254 524.734)" fill="white"/>
</svg>
