<svg width="560" height="575" viewBox="0 0 560 575" fill="none" xmlns="http://www.w3.org/2000/svg">
<circle cx="278.5" cy="286.5" r="146" stroke="white" stroke-width="39"/>
<rect x="480.898" y="83.1274" width="37.2151" height="90" rx="18.6076" transform="rotate(43.8247 480.898 83.1274)" fill="white"/>
<rect x="544.297" y="366.082" width="37.2151" height="90" rx="18.6076" transform="rotate(95.7915 544.297 366.082)" fill="white"/>
<rect x="550.055" y="208" width="37.2151" height="90" rx="18.6076" transform="rotate(75.3023 550.055 208)" fill="white"/>
<rect x="372.762" y="12.1274" width="35.8299" height="90" rx="17.9149" transform="rotate(22.3236 372.762 12.1274)" fill="white"/>
<rect x="216.652" y="10.0952" width="37.2427" height="90" rx="18.6214" transform="rotate(-15.7276 216.652 10.0952)" fill="white"/>
<rect x="94.6562" y="75.6196" width="41.4863" height="90" rx="20.7431" transform="rotate(-41.7594 94.6562 75.6196)" fill="white"/>
<rect x="20" y="188.702" width="41.4863" height="90" rx="20.7431" transform="rotate(-57.5156 20 188.702)" fill="white"/>
<rect x="6.33984" y="341.751" width="41.4863" height="90" rx="20.7431" transform="rotate(-98.7892 6.33984 341.751)" fill="white"/>
<rect x="71.5586" y="479.255" width="41.4863" height="90" rx="20.7431" transform="rotate(-124.6 71.5586 479.255)" fill="white"/>
<rect x="187.941" y="561.09" width="41.4863" height="90" rx="20.7431" transform="rotate(-156.142 187.941 561.09)" fill="white"/>
<rect x="324.848" y="572.604" width="41.4863" height="90" rx="20.7431" transform="rotate(177.516 324.848 572.604)" fill="white"/>
<rect x="461.543" y="500.066" width="41.4863" height="90" rx="20.7431" transform="rotate(140.121 461.543 500.066)" fill="white"/>
</svg>
